<svg width="640" height="480" xmlns="http://www.w3.org/2000/svg">
 <!-- Created with SVG-edit - http://svg-edit.googlecode.com/ -->
 <g>
  <title>Layer 1</title>
  <rect stroke="#000000" id="svg_2" height="295.999999" width="99" y="135.000001" x="217" stroke-width="5" fill="#FF0000"/>
  <line id="svg_3" y2="182" x2="315" y1="182" x1="217" stroke-linecap="null" stroke-linejoin="null" stroke-dasharray="null" stroke-width="5" stroke="#000000" fill="none"/>
  <line id="svg_4" y2="231" x2="315" y1="231" x1="217" stroke-linecap="null" stroke-linejoin="null" stroke-dasharray="null" stroke-width="5" stroke="#000000" fill="none"/>
  <line id="svg_5" y2="282" x2="315" y1="282" x1="217" stroke-linecap="null" stroke-linejoin="null" stroke-dasharray="null" stroke-width="5" stroke="#000000" fill="none"/>
  <line id="svg_6" y2="330" x2="315" y1="330" x1="217" stroke-linecap="null" stroke-linejoin="null" stroke-dasharray="null" stroke-width="5" stroke="#000000" fill="none"/>
  <line id="svg_7" y2="381" x2="316" y1="381" x1="218" stroke-linecap="null" stroke-linejoin="null" stroke-dasharray="null" stroke-width="5" stroke="#000000" fill="none"/>
  <text style="cursor: move; " font-weight="bold" xml:space="preserve" text-anchor="middle" font-family="serif" font-size="24" id="svg_27" y="164" x="266" stroke-linecap="round" stroke-linejoin="null" stroke-dasharray="null" stroke-width="0" stroke="#000000" fill="#000000">9</text>
  <text style="cursor: move; " font-weight="bold" xml:space="preserve" text-anchor="middle" font-family="serif" font-size="24" id="svg_28" y="361" x="269" stroke-linecap="round" stroke-linejoin="null" stroke-dasharray="null" stroke-width="0" stroke="#000000" fill="#000000">52</text>
  <rect id="svg_30" stroke="#000000" height="295.999999" width="99" y="131.000001" x="57" stroke-width="5" fill="#7f7f00"/>
  <line id="svg_31" y2="178" x2="155" y1="178" x1="57" stroke-linecap="null" stroke-linejoin="null" stroke-dasharray="null" stroke-width="5" stroke="#000000" fill="none"/>
  <line id="svg_32" y2="227" x2="155" y1="227" x1="57" stroke-linecap="null" stroke-linejoin="null" stroke-dasharray="null" stroke-width="5" stroke="#000000" fill="none"/>
  <line id="svg_33" y2="278" x2="155" y1="278" x1="57" stroke-linecap="null" stroke-linejoin="null" stroke-dasharray="null" stroke-width="5" stroke="#000000" fill="none"/>
  <line id="svg_34" y2="326" x2="155" y1="326" x1="57" stroke-linecap="null" stroke-linejoin="null" stroke-dasharray="null" stroke-width="5" stroke="#000000" fill="none"/>
  <line id="svg_35" y2="377" x2="156" y1="377" x1="58" stroke-linecap="null" stroke-linejoin="null" stroke-dasharray="null" stroke-width="5" stroke="#000000" fill="none"/>
  <text id="svg_60" font-weight="bold" xml:space="preserve" text-anchor="middle" font-family="serif" font-size="24" y="162" x="104" stroke-linecap="null" stroke-linejoin="null" stroke-dasharray="null" stroke-width="0" stroke="#000000" fill="#000000">1000</text>
  <text id="svg_61" font-weight="bold" xml:space="preserve" text-anchor="middle" font-family="serif" font-size="24" y="261" x="106" stroke-linecap="null" stroke-linejoin="null" stroke-dasharray="null" stroke-width="0" stroke="#000000" fill="#000000">2000</text>
  <text font-weight="bold" xml:space="preserve" text-anchor="middle" font-family="serif" font-size="24" id="svg_76" y="158" x="27" stroke-linecap="null" stroke-linejoin="null" stroke-dasharray="null" stroke-width="0" stroke="#000000" fill="#000000">pA</text>
  <text style="cursor: move; " id="svg_77" font-weight="bold" xml:space="preserve" text-anchor="middle" font-family="serif" font-size="24" y="259" x="28" stroke-linecap="null" stroke-linejoin="null" stroke-dasharray="null" stroke-width="0" stroke="#000000" fill="#000000">pC</text>
  <rect stroke="#000000" id="svg_91" height="87.999997" width="134.999999" y="15" x="38" stroke-linecap="null" stroke-linejoin="null" stroke-dasharray="null" stroke-width="5" fill="#00ff7f"/>
  <text font-weight="bold" xml:space="preserve" text-anchor="middle" font-family="serif" font-size="24" id="svg_78" y="45" x="105" stroke-linecap="null" stroke-linejoin="null" stroke-dasharray="null" stroke-width="0" stroke="#000000" fill="#000000">pA = &amp;a;</text>
  <text id="svg_79" font-weight="bold" xml:space="preserve" text-anchor="middle" font-family="serif" font-size="24" y="81" x="106" stroke-linecap="null" stroke-linejoin="null" stroke-dasharray="null" stroke-width="0" stroke="#000000" fill="#000000">pC = &amp;c;</text>
  <path stroke="#000000" d="m147,157c0.955887,-1 1.911758,-1 2.867645,-1c1.911774,0 2.940414,0.38269 3.823532,0c1.248917,-0.541199 1.911758,-1 2.867645,-1c1.911758,0 2.867645,0 3.823532,0c0.955887,0 1.911758,0 2.867645,0c0.955887,0 2.867645,0 3.823532,0c1.911758,0 3.823532,1 4.779404,1c0.955887,0 3.823532,0 5.735306,0c0.955872,0 0.955872,1 1.911758,1c0.955887,0 1.911758,0 2.867645,0c1.911774,0 2.751556,0.493454 5.735291,1c0.943542,0.160187 2.867661,0 3.823532,0c0.955887,0 1.911774,1 2.867645,1c1.911774,0 2.867645,0 3.823532,0c0.955887,0 1.235855,0.292892 1.911774,1c0.675903,0.707108 1.911758,0 2.867645,0c0.955872,0 2.191727,-0.707108 2.867645,0c0.675903,0.707108 0.955887,1 1.911758,1c0.955887,0 1.911774,0 2.867645,0l0.955887,0l0,1" id="svg_92" stroke-linecap="null" stroke-linejoin="null" stroke-dasharray="null" stroke-width="5" fill="none"/>
  <path d="m199,146c1,1 2,2 3,3c2,2 4.380737,3.522217 7,6c3.632263,3.436081 5.824432,5.097885 7,7c0.525726,0.850647 0.292892,1.292892 1,2c0.707108,0.707108 0,0 -1,0c-2,0 -5.012909,0.839813 -6,1c-3.121445,0.506546 -8.022476,1.633453 -11,2c-4.092209,0.503769 -4.878555,1.493454 -8,2c-1.974182,0.320358 -3,1 -4,1l-1,0" id="svg_93" stroke-linecap="null" stroke-linejoin="null" stroke-dasharray="null" stroke-width="5" stroke="#000000" fill="none"/>
  <path d="m146,255c1,0 1.693436,1.458801 3,2c0.923874,0.38269 2.61731,1.076111 3,2c0.541199,1.306549 1.692551,1.186005 3,3c1.653809,2.294525 2.337494,4.309998 4,7c0.7435,1.203003 2.810898,4.018036 3,5c1.018372,5.287994 3.190277,6.881531 5,10c1.122345,1.93399 2.95517,4.549164 4,8c0.579575,1.914185 1,3 1,4c0,1 0.292892,1.292908 1,2c0.707108,0.707092 1,2 1,3c0,1 1,2 2,4c1,2 2.486252,3.823761 3,6c0.229752,0.973236 0.770248,2.026764 1,3c0.513748,2.176239 1.173096,2.852722 2,4c1.307449,1.813995 1.458801,2.693451 2,4c0.38269,0.923889 1,1 2,3c1,2 1.770248,3.026764 2,4c0.513748,2.176239 2,2 2,3c0,1 0.770248,1.026764 1,2c0.513748,2.176239 1.770248,3.026764 2,4c0.513748,2.176239 2.486252,2.823761 3,5c0.229752,0.973236 0.097885,3.824432 2,5c0.850647,0.525726 1.486252,0.823761 2,3c0.229752,0.973236 1,1 1,2c0,1 0.61731,1.076111 1,2c0.541199,1.306549 2,2 3,2c1,0 2,1 3,1l2,-1l1,0l-1,0" id="svg_95" stroke-linecap="null" stroke-linejoin="null" stroke-dasharray="null" stroke-width="5" stroke="#000000" fill="none"/>
  <path d="m203,332c1,0 1,1 1,2c0,1 -0.414215,2.585785 1,4c0.707108,0.707092 1.486252,1.823761 2,4c0.229752,0.973236 1,1 1,2c0,1 0,2 0,3c0,1 -0.38269,2.076111 0,3c0.541199,1.306549 1,2 1,3c0,1 0.707108,2.292908 0,3c-0.707108,0.707092 -2,1 -3,1c-2,0 -3.823746,0.486267 -6,1c-0.973251,0.229767 -2,0 -3,0c-1,0 -1.823746,0.486267 -4,1c-0.973251,0.229767 -3.076126,-0.38269 -4,0c-1.306564,0.541199 -3,1 -5,1l-1,0l0,1" id="svg_96" stroke-linecap="null" stroke-linejoin="null" stroke-dasharray="null" stroke-width="5" stroke="#000000" fill="none"/>
  <text font-weight="bold" xml:space="preserve" text-anchor="middle" font-family="serif" font-size="24" id="svg_97" y="113" x="478" stroke-linecap="null" stroke-linejoin="null" stroke-dasharray="null" stroke-width="0" stroke="#000000" fill="#000000">*pA = 55;</text>
  <text style="cursor: move; " id="svg_98" font-weight="bold" xml:space="preserve" text-anchor="middle" font-family="serif" font-size="24" y="146.5" x="479" stroke-linecap="null" stroke-linejoin="null" stroke-dasharray="null" stroke-width="0" stroke="#000000" fill="#000000">*pC = 23;</text>
  <text style="cursor: move; " id="svg_99" font-weight="bold" xml:space="preserve" text-anchor="middle" font-family="serif" font-size="24" y="247.5" x="481" stroke-linecap="null" stroke-linejoin="null" stroke-dasharray="null" stroke-width="0" stroke="#000000" fill="#000000">*pC = 52;</text>
  <text style="cursor: move; " id="svg_100" font-weight="bold" xml:space="preserve" text-anchor="middle" font-family="serif" font-size="24" y="209.5" x="478" stroke-linecap="null" stroke-linejoin="null" stroke-dasharray="null" stroke-width="0" stroke="#000000" fill="#000000">*pA = 9;</text>
 </g>
</svg>
