<svg width="640" height="480" xmlns="http://www.w3.org/2000/svg">
 <!-- Created with SVG-edit - http://svg-edit.googlecode.com/ -->
 <g>
  <title>Layer 1</title>
  <rect fill="#FF0000" stroke-width="5" x="433" y="103.000001" width="99" height="295.999999" id="svg_2" stroke="#000000"/>
  <line fill="none" stroke="#000000" stroke-width="5" stroke-dasharray="null" stroke-linejoin="null" stroke-linecap="null" x1="433" y1="150" x2="531" y2="150" id="svg_3"/>
  <line fill="none" stroke="#000000" stroke-width="5" stroke-dasharray="null" stroke-linejoin="null" stroke-linecap="null" x1="433" y1="199" x2="531" y2="199" id="svg_4"/>
  <line fill="none" stroke="#000000" stroke-width="5" stroke-dasharray="null" stroke-linejoin="null" stroke-linecap="null" x1="433" y1="250" x2="531" y2="250" id="svg_5"/>
  <line fill="none" stroke="#000000" stroke-width="5" stroke-dasharray="null" stroke-linejoin="null" stroke-linecap="null" x1="433" y1="298" x2="531" y2="298" id="svg_6"/>
  <line fill="none" stroke="#000000" stroke-width="5" stroke-dasharray="null" stroke-linejoin="null" stroke-linecap="null" x1="434" y1="349" x2="532" y2="349" id="svg_7"/>
  <text fill="#000000" stroke="#000000" stroke-width="0" stroke-dasharray="null" stroke-linejoin="null" stroke-linecap="null" x="567" y="131" id="svg_8" font-size="24" font-family="serif" text-anchor="middle" xml:space="preserve" font-weight="bold">1000</text>
  <text fill="#000000" stroke="#000000" stroke-width="0" stroke-dasharray="null" stroke-linejoin="null" stroke-linecap="null" x="567" y="230.5" font-size="24" font-family="serif" text-anchor="middle" xml:space="preserve" font-weight="bold" id="svg_9">1500</text>
  <text fill="#000000" stroke="#000000" stroke-width="0" stroke-dasharray="null" stroke-linejoin="null" stroke-linecap="null" x="567" y="331.5" font-size="24" font-family="serif" text-anchor="middle" xml:space="preserve" font-weight="bold" id="svg_10">2000</text>
  <polyline fill="none" stroke="#000000" stroke-width="5" stroke-dasharray="null" stroke-linejoin="null" stroke-linecap="round" points="562,191 563,191 " id="svg_13"/>
  <path fill="none" stroke="#000000" stroke-width="5" stroke-dasharray="null" stroke-linejoin="null" stroke-linecap="null" id="svg_14" d="m547,148"/>
  <polyline fill="none" stroke="#000000" stroke-width="5" stroke-dasharray="null" stroke-linejoin="null" stroke-linecap="round" points="561.5,171.5 562.5,171.5 " id="svg_18"/>
  <polyline fill="none" stroke="#000000" stroke-width="5" stroke-dasharray="null" stroke-linejoin="null" stroke-linecap="round" points="561.5,151.5 562.5,151.5 " id="svg_19"/>
  <polyline fill="none" stroke="#000000" stroke-width="5" stroke-dasharray="null" stroke-linejoin="null" stroke-linecap="round" points="562.75,290.25 563.75,290.25 " id="svg_20"/>
  <polyline fill="none" stroke="#000000" stroke-width="5" stroke-dasharray="null" stroke-linejoin="null" stroke-linecap="round" points="562.25,270.75 563.25,270.75 " id="svg_21"/>
  <polyline fill="none" stroke="#000000" stroke-width="5" stroke-dasharray="null" stroke-linejoin="null" stroke-linecap="round" points="562.25,250.75 563.25,250.75 " id="svg_22"/>
  <text fill="#000000" stroke="#000000" stroke-width="0" stroke-dasharray="null" stroke-linejoin="null" stroke-linecap="round" x="408" y="131" id="svg_23" font-size="24" font-family="serif" text-anchor="middle" xml:space="preserve" font-weight="bold">a</text>
  <text fill="#000000" stroke="#000000" stroke-width="0" stroke-dasharray="null" stroke-linejoin="null" stroke-linecap="round" x="407" y="329.5" font-size="24" font-family="serif" text-anchor="middle" xml:space="preserve" font-weight="bold" id="svg_24">c</text>
  <text style="cursor: move; " fill="#000000" stroke="#000000" stroke-width="0" stroke-dasharray="null" stroke-linejoin="null" stroke-linecap="round" x="324" y="85.5" font-size="24" font-family="serif" text-anchor="middle" xml:space="preserve" font-weight="bold" id="svg_26">c = 23;</text>
  <text fill="#000000" stroke="#000000" stroke-width="0" stroke-dasharray="null" stroke-linejoin="null" stroke-linecap="round" x="482" y="132" id="svg_27" font-size="24" font-family="serif" text-anchor="middle" xml:space="preserve" font-weight="bold">55</text>
  <text style="cursor: move; " fill="#000000" stroke="#000000" stroke-width="0" stroke-dasharray="null" stroke-linejoin="null" stroke-linecap="round" x="485" y="329" id="svg_28" font-size="24" font-family="serif" text-anchor="middle" xml:space="preserve" font-weight="bold">23</text>
  <text fill="#000000" stroke="#000000" stroke-width="0" stroke-dasharray="null" stroke-linejoin="null" stroke-linecap="round" x="323" y="125.5" font-size="24" font-family="serif" text-anchor="middle" xml:space="preserve" font-weight="bold" id="svg_29">a = 55;</text>
  <rect fill="#7f7f00" stroke-width="5" x="57" y="131.000001" width="99" height="295.999999" stroke="#000000" id="svg_30"/>
  <line fill="none" stroke="#000000" stroke-width="5" stroke-dasharray="null" stroke-linejoin="null" stroke-linecap="null" x1="57" y1="178" x2="155" y2="178" id="svg_31"/>
  <line fill="none" stroke="#000000" stroke-width="5" stroke-dasharray="null" stroke-linejoin="null" stroke-linecap="null" x1="57" y1="227" x2="155" y2="227" id="svg_32"/>
  <line fill="none" stroke="#000000" stroke-width="5" stroke-dasharray="null" stroke-linejoin="null" stroke-linecap="null" x1="57" y1="278" x2="155" y2="278" id="svg_33"/>
  <line fill="none" stroke="#000000" stroke-width="5" stroke-dasharray="null" stroke-linejoin="null" stroke-linecap="null" x1="57" y1="326" x2="155" y2="326" id="svg_34"/>
  <line fill="none" stroke="#000000" stroke-width="5" stroke-dasharray="null" stroke-linejoin="null" stroke-linecap="null" x1="58" y1="377" x2="156" y2="377" id="svg_35"/>
  <path fill="none" stroke="#000000" stroke-width="5" stroke-dasharray="null" stroke-linejoin="null" stroke-linecap="null" d="m171,176" id="svg_40"/>
  <text fill="#000000" stroke="#000000" stroke-width="0" stroke-dasharray="null" stroke-linejoin="null" stroke-linecap="null" x="206" y="161" font-size="24" font-family="serif" text-anchor="middle" xml:space="preserve" font-weight="bold" id="svg_51">500000</text>
  <text fill="#000000" stroke="#000000" stroke-width="0" stroke-dasharray="null" stroke-linejoin="null" stroke-linecap="null" x="207" y="259" font-size="24" font-family="serif" text-anchor="middle" xml:space="preserve" font-weight="bold" id="svg_53">600000</text>
  <polyline fill="none" stroke="#000000" stroke-width="5" stroke-dasharray="null" stroke-linejoin="null" stroke-linecap="round" points="204.75,223.75 205.75,223.75 " id="svg_54"/>
  <polyline fill="none" stroke="#000000" stroke-width="5" stroke-dasharray="null" stroke-linejoin="null" stroke-linecap="round" points="204.25,204.25 205.25,204.25 " id="svg_55"/>
  <polyline fill="none" stroke="#000000" stroke-width="5" stroke-dasharray="null" stroke-linejoin="null" stroke-linecap="round" points="204.25,184.25 205.25,184.25 " id="svg_56"/>
  <polyline fill="none" stroke="#000000" stroke-width="5" stroke-dasharray="null" stroke-linejoin="null" stroke-linecap="round" points="205.75,342.75 206.75,342.75 " id="svg_57"/>
  <polyline fill="none" stroke="#000000" stroke-width="5" stroke-dasharray="null" stroke-linejoin="null" stroke-linecap="round" points="205.25,323.25 206.25,323.25 " id="svg_58"/>
  <polyline fill="none" stroke="#000000" stroke-width="5" stroke-dasharray="null" stroke-linejoin="null" stroke-linecap="round" points="205.25,303.25 206.25,303.25 " id="svg_59"/>
  <text fill="#000000" stroke="#000000" stroke-width="0" stroke-dasharray="null" stroke-linejoin="null" stroke-linecap="null" x="104" y="162" font-size="24" font-family="serif" text-anchor="middle" xml:space="preserve" font-weight="bold" id="svg_60">1000</text>
  <text fill="#000000" stroke="#000000" stroke-width="0" stroke-dasharray="null" stroke-linejoin="null" stroke-linecap="null" x="106" y="261" font-size="24" font-family="serif" text-anchor="middle" xml:space="preserve" font-weight="bold" id="svg_61">2000</text>
  <path fill="none" stroke="#000000" stroke-width="5" stroke-dasharray="null" stroke-linejoin="null" stroke-linecap="null" id="svg_64" d="m77,143c-1,-1 -1,-2 -2,-3c-1,-1 -0.540497,-2.052979 -1,-4c-0.513702,-2.175995 -2,-5 -2,-6c0,-3 -1,-7 -1,-11c0,-1 0.496201,-7.90799 1,-12c0.610901,-4.963013 0,-7 1,-11c2,-8 2.7556,-12.015015 3,-14c0.503799,-4.092194 2,-5 4,-11c1,-3 2.346199,-5.705505 4,-8c1.307404,-1.813995 1.714111,-3.2117 4,-6c0.896591,-1.093689 2.186005,-2.692505 4,-4c2.29451,-1.653809 2.474304,-2.149292 3,-3c1.175598,-1.9021 5.372009,-2.385101 9,-5c2.294998,-1.653809 6.229004,-3.332001 10,-5c3.296997,-1.458588 9.769989,-4.548584 14,-6c4.822998,-1.654785 9.082993,-2.694489 17,-5c3.035995,-0.884094 10.072006,-2.691193 15,-4c6.113007,-1.623291 7.985001,-2.080688 13,-3c5.983002,-1.096588 8.921997,-1.273499 12,-2c6.882004,-1.624603 10,-1 16,-1c6,0 13,0 16,0c6,0 10,0 16,0c8,0 10,1 17,1c5,0 11.878998,1.4935 15,2c6.910004,1.121307 11.925995,1.497589 17,2c3.980988,0.394104 7.953003,1.498993 16,2c1.996002,0.124298 7.963013,1.1604 12,2c5.954987,1.238586 10.040985,0.847198 14,2c3.036011,0.884094 8.790009,2.990204 16,4c1.980988,0.277405 9.016998,1.933502 13,3c7.032013,1.883087 8.928009,3.231689 15,5c3.959015,1.152802 7.342987,0.763092 13,3c3.352997,1.325897 8.760986,3.415894 12,5c5.681,2.778687 7.769012,2.303192 9,3c3.588013,2.031403 6.040985,1.847198 10,3c3.036011,0.884094 5.132996,1.569489 9,3c2.096985,0.775787 3.93399,2.144287 6,3c2.921997,1.210205 3.292999,1.292908 4,2c0.707001,0.707092 2,0 4,1c2,1 2.692993,1.458801 4,2c0.924011,0.38269 3.027008,0.770203 4,1c2.175995,0.513702 4.027008,1.770203 5,2c4.352997,1.027496 7,3 11,5c2,1 6.018005,2.810883 7,3c5.287964,1.018402 6.027039,2.770203 7,3c4.353027,1.027496 5,3 6,3l1,0l0,1l1,0"/>
  <path fill="none" stroke="#000000" stroke-width="5" stroke-dasharray="null" stroke-linejoin="null" stroke-linecap="null" id="svg_65" d="m462,57c0,1 1,1 2,2c1,1 3.220215,3.79488 6,7c3.276001,3.777267 4.292908,4.292892 5,5c0.707092,0.707108 0.292908,1.292892 1,2c0.707092,0.707108 0.292908,1.292892 1,2c0.707092,0.707108 0.292908,2.292892 1,3c0.707092,0.707108 1,1 2,2c1,1 1.292908,1.292892 2,2c0.707092,0.707108 0.61731,1.076118 1,2c0.541199,1.306564 1.292908,2.292892 2,3c0.707092,0.707108 0.292908,1.292892 1,2c0.707092,0.707108 1.707092,1.292892 1,2c-0.707092,0.707108 -2,0 -3,0c-1,0 -1.693451,0.458801 -3,1c-1.847748,0.765366 -4,-1 -5,-1c-1,0 -3,0 -4,0c-1,0 -2,0 -4,0c-1,0 -2,0 -4,0c-1,0 -3,0 -4,0c-1,0 -2,0 -3,0c-1,0 -2,0 -3,0c-2,0 -3,0 -5,0c-1,0 -2,0 -3,0c-1,0 -2,0 -1,0l-1,0"/>
  <path fill="none" stroke="#000000" stroke-width="5" stroke-dasharray="null" stroke-linejoin="null" stroke-linecap="null" id="svg_74" d="m142,252c0,1 1.458801,1.693436 2,3c0.38269,0.923874 0.61731,1.076111 1,2c1.082397,2.613129 4,4 7,7c1,1 2.076126,1.61731 3,2c1.306564,0.541199 2,2 4,3c2,1 2.292892,1.292908 3,2c0.707108,0.707092 3.026749,0.770233 4,1c2.176254,0.513733 3.292892,0.292908 4,1c0.707108,0.707092 3.963837,2.115875 7,3c3.958679,1.152771 6.07843,1.789856 9,3c2.065857,0.855713 4.310013,1.337494 7,3c1.203003,0.7435 4.152237,1.234619 6,2c1.306564,0.541199 1.878555,1.493469 5,2c0.987091,0.160187 2,0 4,0c1,0 2,0 4,0c2,0 4.292892,0.707092 5,0c0.707108,-0.707092 2.878555,-1.493469 6,-2c1.974182,-0.320374 5.029205,-0.408783 11,-1c5.074203,-0.502441 10,-2 14,-2c6,0 10,-1 16,-1c4,0 11.925781,0.497559 17,1c6.965942,0.689758 9.980865,0.122589 16,1c7.977936,1.162964 14.11499,1.539001 23,4c6.095062,1.688232 16.041321,4.847229 20,6c9.10849,2.652405 14.03067,5.912323 17,7c5.05658,1.852264 7.215393,2.118927 13,4c2.126465,0.691498 5,2 5,3l1,0l1,0l0,-1"/>
  <path fill="none" stroke="#000000" stroke-width="5" stroke-dasharray="null" stroke-linejoin="null" stroke-linecap="null" id="svg_75" d="m367,289c1,0 2.076111,-0.38269 3,0c1.306549,0.541199 4.132019,1.75531 8,4c9.355438,5.429169 12.262085,7.572754 19,12c4.17868,2.745667 6.474274,5.149353 7,6c1.175568,1.9021 3.707092,1.292908 3,2c-0.707092,0.707092 -2.012909,-0.160187 -3,0c-3.121429,0.506531 -7,1 -14,1c-2,0 -6.029968,-0.488739 -10,0c-4.092224,0.503784 -11.925781,2.497559 -17,3c-1.990265,0.197083 -3,0 -4,0l-1,0l-1,0l-1,0"/>
 </g>
</svg>
