<svg width="640" height="480" xmlns="http://www.w3.org/2000/svg">
 <!-- Created with SVG-edit - http://svg-edit.googlecode.com/ -->
 <g>
  <title>Layer 1</title>
  <rect fill="#FF0000" stroke-width="5" x="217" y="135.000001" width="99" height="295.999999" id="svg_2" stroke="#000000"/>
  <line fill="none" stroke="#000000" stroke-width="5" stroke-dasharray="null" stroke-linejoin="null" stroke-linecap="null" x1="217" y1="182" x2="315" y2="182" id="svg_3"/>
  <line fill="none" stroke="#000000" stroke-width="5" stroke-dasharray="null" stroke-linejoin="null" stroke-linecap="null" x1="217" y1="231" x2="315" y2="231" id="svg_4"/>
  <line fill="none" stroke="#000000" stroke-width="5" stroke-dasharray="null" stroke-linejoin="null" stroke-linecap="null" x1="217" y1="282" x2="315" y2="282" id="svg_5"/>
  <line fill="none" stroke="#000000" stroke-width="5" stroke-dasharray="null" stroke-linejoin="null" stroke-linecap="null" x1="217" y1="330" x2="315" y2="330" id="svg_6"/>
  <line fill="none" stroke="#000000" stroke-width="5" stroke-dasharray="null" stroke-linejoin="null" stroke-linecap="null" x1="218" y1="381" x2="316" y2="381" id="svg_7"/>
  <text style="cursor: move; " fill="#000000" stroke="#000000" stroke-width="0" stroke-dasharray="null" stroke-linejoin="null" stroke-linecap="round" x="266" y="164" id="svg_27" font-size="24" font-family="serif" text-anchor="middle" xml:space="preserve" font-weight="bold">9</text>
  <text style="cursor: move; " fill="#000000" stroke="#000000" stroke-width="0" stroke-dasharray="null" stroke-linejoin="null" stroke-linecap="round" x="269" y="361" id="svg_28" font-size="24" font-family="serif" text-anchor="middle" xml:space="preserve" font-weight="bold">52</text>
  <rect fill="#7f7f00" stroke-width="5" x="57" y="131.000001" width="99" height="295.999999" stroke="#000000" id="svg_30"/>
  <line fill="none" stroke="#000000" stroke-width="5" stroke-dasharray="null" stroke-linejoin="null" stroke-linecap="null" x1="57" y1="178" x2="155" y2="178" id="svg_31"/>
  <line fill="none" stroke="#000000" stroke-width="5" stroke-dasharray="null" stroke-linejoin="null" stroke-linecap="null" x1="57" y1="227" x2="155" y2="227" id="svg_32"/>
  <line fill="none" stroke="#000000" stroke-width="5" stroke-dasharray="null" stroke-linejoin="null" stroke-linecap="null" x1="57" y1="278" x2="155" y2="278" id="svg_33"/>
  <line fill="none" stroke="#000000" stroke-width="5" stroke-dasharray="null" stroke-linejoin="null" stroke-linecap="null" x1="57" y1="326" x2="155" y2="326" id="svg_34"/>
  <line fill="none" stroke="#000000" stroke-width="5" stroke-dasharray="null" stroke-linejoin="null" stroke-linecap="null" x1="58" y1="377" x2="156" y2="377" id="svg_35"/>
  <text fill="#000000" stroke="#000000" stroke-width="0" stroke-dasharray="null" stroke-linejoin="null" stroke-linecap="null" x="104" y="162" font-size="24" font-family="serif" text-anchor="middle" xml:space="preserve" font-weight="bold" id="svg_60">1000</text>
  <text fill="#000000" stroke="#000000" stroke-width="0" stroke-dasharray="null" stroke-linejoin="null" stroke-linecap="null" x="106" y="261" font-size="24" font-family="serif" text-anchor="middle" xml:space="preserve" font-weight="bold" id="svg_61">2000</text>
  <text fill="#000000" stroke="#000000" stroke-width="0" stroke-dasharray="null" stroke-linejoin="null" stroke-linecap="null" x="27" y="158" id="svg_76" font-size="24" font-family="serif" text-anchor="middle" xml:space="preserve" font-weight="bold">pA</text>
  <text fill="#000000" stroke="#000000" stroke-width="0" stroke-dasharray="null" stroke-linejoin="null" stroke-linecap="null" x="28" y="259" font-size="24" font-family="serif" text-anchor="middle" xml:space="preserve" font-weight="bold" id="svg_77">pC</text>
  <path fill="none" stroke-width="5" stroke-dasharray="null" stroke-linejoin="null" stroke-linecap="null" id="svg_92" d="m147,157c0.955887,-1 1.911758,-1 2.867645,-1c1.911774,0 2.940414,0.38269 3.823532,0c1.248917,-0.541199 1.911758,-1 2.867645,-1c1.911758,0 2.867645,0 3.823532,0c0.955887,0 1.911758,0 2.867645,0c0.955887,0 2.867645,0 3.823532,0c1.911758,0 3.823532,1 4.779404,1c0.955887,0 3.823532,0 5.735306,0c0.955872,0 0.955872,1 1.911758,1c0.955887,0 1.911758,0 2.867645,0c1.911774,0 2.751556,0.493454 5.735291,1c0.943542,0.160187 2.867661,0 3.823532,0c0.955887,0 1.911774,1 2.867645,1c1.911774,0 2.867645,0 3.823532,0c0.955887,0 1.235855,0.292892 1.911774,1c0.675903,0.707108 1.911758,0 2.867645,0c0.955872,0 2.191727,-0.707108 2.867645,0c0.675903,0.707108 0.955887,1 1.911758,1c0.955887,0 1.911774,0 2.867645,0l0.955887,0l0,1" stroke="#000000"/>
  <path fill="none" stroke="#000000" stroke-width="5" stroke-dasharray="null" stroke-linejoin="null" stroke-linecap="null" id="svg_93" d="m199,146c1,1 2,2 3,3c2,2 4.380737,3.522217 7,6c3.632263,3.436081 5.824432,5.097885 7,7c0.525726,0.850647 0.292892,1.292892 1,2c0.707108,0.707108 0,0 -1,0c-2,0 -5.012909,0.839813 -6,1c-3.121445,0.506546 -8.022476,1.633453 -11,2c-4.092209,0.503769 -4.878555,1.493454 -8,2c-1.974182,0.320358 -3,1 -4,1l-1,0"/>
  <path fill="none" stroke="#000000" stroke-width="5" stroke-dasharray="null" stroke-linejoin="null" stroke-linecap="null" id="svg_95" d="m146,255c1,0 1.693436,1.458801 3,2c0.923874,0.38269 2.61731,1.076111 3,2c0.541199,1.306549 1.692551,1.186005 3,3c1.653809,2.294525 2.337494,4.309998 4,7c0.7435,1.203003 2.810898,4.018036 3,5c1.018372,5.287994 3.190277,6.881531 5,10c1.122345,1.93399 2.95517,4.549164 4,8c0.579575,1.914185 1,3 1,4c0,1 0.292892,1.292908 1,2c0.707108,0.707092 1,2 1,3c0,1 1,2 2,4c1,2 2.486252,3.823761 3,6c0.229752,0.973236 0.770248,2.026764 1,3c0.513748,2.176239 1.173096,2.852722 2,4c1.307449,1.813995 1.458801,2.693451 2,4c0.38269,0.923889 1,1 2,3c1,2 1.770248,3.026764 2,4c0.513748,2.176239 2,2 2,3c0,1 0.770248,1.026764 1,2c0.513748,2.176239 1.770248,3.026764 2,4c0.513748,2.176239 2.486252,2.823761 3,5c0.229752,0.973236 0.097885,3.824432 2,5c0.850647,0.525726 1.486252,0.823761 2,3c0.229752,0.973236 1,1 1,2c0,1 0.61731,1.076111 1,2c0.541199,1.306549 2,2 3,2c1,0 2,1 3,1l2,-1l1,0l-1,0"/>
  <path fill="none" stroke="#000000" stroke-width="5" stroke-dasharray="null" stroke-linejoin="null" stroke-linecap="null" id="svg_96" d="m203,332c1,0 1,1 1,2c0,1 -0.414215,2.585785 1,4c0.707108,0.707092 1.486252,1.823761 2,4c0.229752,0.973236 1,1 1,2c0,1 0,2 0,3c0,1 -0.38269,2.076111 0,3c0.541199,1.306549 1,2 1,3c0,1 0.707108,2.292908 0,3c-0.707108,0.707092 -2,1 -3,1c-2,0 -3.823746,0.486267 -6,1c-0.973251,0.229767 -2,0 -3,0c-1,0 -1.823746,0.486267 -4,1c-0.973251,0.229767 -3.076126,-0.38269 -4,0c-1.306564,0.541199 -3,1 -5,1l-1,0l0,1"/>
  <path d="m352,156c0,1 1.292908,0.292892 2,1c0.707092,0.707108 0.693451,1.458801 2,2c0.923889,0.38269 3.292908,1.292892 4,2c0.707092,0.707108 1.549164,2.95517 5,4c0.957092,0.28978 2.931641,1.07341 4,2c3.777283,3.276016 5.0979,2.824432 7,4c4.253265,2.628662 5.256592,5.418854 10,7c0.948669,0.316223 3,2 4,3c1,1 1.61731,1.076126 2,2c1.082397,2.613129 3.292908,3.292892 4,4c0.707092,0.707108 0.0979,2.824432 2,4c0.850647,0.525726 1.714111,3.21167 4,6c1.793182,2.187347 3.519287,3.558197 6,7c1.307465,1.813995 4.190277,6.881516 6,10c2.24469,3.867996 3.190277,4.881516 5,8c2.24469,3.867996 3.147736,6.943405 5,12c1.087677,2.96933 1.345184,8.176971 3,13c0.725677,2.115036 2.273468,7.922318 3,11c1.624603,6.881897 1.493469,8.878571 2,12c0.48056,2.961273 0,6 0,9c0,2 -1.188354,6.943665 -2,10c-1.308746,4.928192 -3.568695,8.782745 -6,16c-1.316284,3.907349 -3.361664,10.305389 -6,15c-2.449615,4.358826 -6.206818,9.812653 -8,12c-2.285889,2.78833 -4.741821,5.327179 -11,10c-2.889038,2.157166 -11.02475,5.939178 -16,8c-7.036072,2.914429 -14.041321,4.847229 -18,6c-6.072327,1.76828 -8,2 -12,3l-3,0l0,1" id="svg_9" stroke-linecap="null" stroke-linejoin="null" stroke-dasharray="null" stroke-width="10" stroke="#000000" fill="none"/>
  <path d="m363,332c-1,0 -1.149353,0.474274 -2,1c-1.9021,1.175568 -2.346191,2.705475 -4,5c-1.307465,1.813995 -2.486267,1.823761 -3,4c-0.459503,1.946503 -0.770233,2.026764 -1,3c-0.513733,2.176239 -1.292908,2.292908 -2,3c-1.414215,1.414215 -1,2 -1,3c0,1 -1.486267,1.823761 -2,4c-0.229767,0.973236 -1,1 -1,2c0,1 1.076111,1.61731 2,2c1.306549,0.541199 4.039856,2.923981 6,4c5.11145,2.805908 7.763031,4.380554 14,8c3.867981,2.24469 9.186005,4.692535 11,6c1.147278,0.826904 3,1 3,2l1,0" id="svg_10" stroke-linecap="null" stroke-linejoin="null" stroke-dasharray="null" stroke-width="10" stroke="#000000" fill="none"/>
  <path d="m351,154c0,1 -0.772003,2.2771 1,6c2.148865,4.514694 4.337494,7.310013 6,10c0.7435,1.203003 3,5 5,8l2,3l1,3l1,1" id="svg_11" stroke-linecap="null" stroke-linejoin="null" stroke-dasharray="null" stroke-width="10" stroke="#000000" fill="none"/>
  <path d="m355,155c0,-1 0.796997,-1.2565 2,-2c2.690002,-1.662506 6,-1 10,-2c8,-2 13,-3 18,-3c2,0 5,0 7,0l2,0l1,0" id="svg_12" stroke-linecap="null" stroke-linejoin="null" stroke-dasharray="null" stroke-width="10" stroke="#000000" fill="none"/>
  <text font-weight="bold" xml:space="preserve" text-anchor="middle" font-family="serif" font-size="24" id="svg_13" y="106" x="484" stroke-linecap="null" stroke-linejoin="null" stroke-dasharray="null" stroke-width="0" stroke="#000000" fill="#000000">Given:</text>
  <text font-weight="bold" xml:space="preserve" text-anchor="middle" font-family="serif" font-size="24" id="svg_14" y="142" x="532" stroke-linecap="null" stroke-linejoin="null" stroke-dasharray="null" stroke-width="0" stroke="#000000" fill="#000000">addr1 = 1000</text>
  <text style="cursor: move; " id="svg_15" font-weight="bold" xml:space="preserve" text-anchor="middle" font-family="serif" font-size="24" y="175" x="531" stroke-linecap="null" stroke-linejoin="null" stroke-dasharray="null" stroke-width="0" stroke="#000000" fill="#000000">addr2 = 2000</text>
 </g>
</svg>
